<svg xmlns="http://www.w3.org/2000/svg" width="20" height="20" viewBox="0 0 20 20" id="cart"><g fill="none" fill-rule="evenodd"><g fill="#000" transform="translate(-260 -2999)"><g transform="translate(56 160)"><path d="M219 2857.04c-.55 0-1-.44-1-.981 0-.648.453-.839 1-1.029.547.19 1 .38 1 1.029 0 .54-.449.98-1 .98zm-12 0c-.55 0-1-.44-1-.981 0-.648.453-.839 1-1.029.547.19 1 .38 1 1.029 0 .54-.449.98-1 .98zm13-14.709c0-.541.448-1.37 1-1.37h2c.552 0 1-.244 1-.786v-.097c0-.542-.448-1.078-1-1.078h-3c-1.105 0-2 1.267-2 2.35v9.417h-10c-.91 0-2 .964-2 2.53-1.337.466-2.244 1.821-1.942 3.35.23 1.154 1.198 2.093 2.378 2.302 1.905.34 3.564-1.084 3.564-2.89 0-1.279-.837-2.356-2-2.761v-.57h10v.57c-1.337.465-2.244 1.82-1.942 3.35.23 1.153 1.198 2.092 2.378 2.301 1.905.34 3.564-1.084 3.564-2.89 0-1.279-.837-2.356-2-2.761v-10.967z"></path></g></g></g></svg>